<svg width="40" height="40" viewBox="0 0 40 40" fill="none" xmlns="http://www.w3.org/2000/svg">
<path fill-rule="evenodd" clip-rule="evenodd" d="M33.0632 23.1186V23.5809L33.2661 23.9964L37.0994 31.8448H25.8094H23.8094V32.2678H15.8625V31.8448H13.8625H2.58191L6.41517 23.9964L6.61807 23.5809V23.1186V15.4444V15.4334L6.61795 15.4224C6.55862 10.0368 9.84887 5.18022 14.8725 3.23825L14.888 3.23227L14.9004 3.22722L14.9014 3.22684L14.9015 3.2268L14.9022 3.22649L14.9027 3.22628L14.9152 3.22137C14.9294 3.21577 14.9536 3.20635 14.9872 3.19363C15.0543 3.16818 15.1582 3.12968 15.2935 3.08245C15.565 2.98768 15.958 2.85934 16.429 2.73078C17.3916 2.46805 18.5888 2.22992 19.7093 2.22992C20.8371 2.22992 22.1064 2.47048 23.15 2.73849C23.6595 2.86933 24.0903 3.00016 24.3908 3.09729C24.5407 3.14572 24.657 3.18541 24.7333 3.21202C24.771 3.22516 24.7988 3.23508 24.8159 3.24126C29.796 5.24018 33.0618 10.0669 33.0632 15.4351V15.4356V23.1186ZM4.35714 33.8448V34.2678H5.35714H13.8673C13.9939 37.455 16.6177 40 19.836 40C23.0542 40 25.678 37.455 25.8047 34.2678H33.9286H34.9286V33.8448H37.3184C37.9615 33.8445 38.559 33.5126 38.8992 32.9668C39.2394 32.421 39.2741 31.7384 38.9911 31.1609L35.0632 23.1186V15.4351C35.0618 9.2387 31.2854 3.66832 25.5299 1.37278C25.5299 1.37278 22.4503 0.229919 19.7093 0.229919C16.9682 0.229919 14.1514 1.37278 14.1514 1.37278C8.34951 3.61559 4.54955 9.22453 4.61807 15.4444V23.1186L0.690114 31.1609C0.407143 31.7384 0.4419 32.421 0.78207 32.9668C1.12224 33.5126 1.71976 33.8445 2.36287 33.8448H4.35714ZM23.8022 34.2678C23.6775 36.3499 21.9494 38 19.836 38C17.7225 38 15.9944 36.3499 15.8697 34.2678H23.8022Z" fill="#46B843"/>
</svg>
