<svg width="55" height="54" viewBox="0 0 55 54" fill="none" xmlns="http://www.w3.org/2000/svg">
<path d="M0.563599 0V53.95H54.4789V29.404V0H0.563599Z" fill="#889099"/>
<mask id="mask0_2453_321" style="mask-type:alpha" maskUnits="userSpaceOnUse" x="0" y="16" width="55" height="23">
<path fill-rule="evenodd" clip-rule="evenodd" d="M0.555603 16.733V38.83H54.4869V16.733H0.555603Z" fill="white"/>
</mask>
<g mask="url(#mask0_2453_321)">
<path fill-rule="evenodd" clip-rule="evenodd" d="M51.9275 26.16H47.8794L46.9991 24.7612V26.16H41.1718L40.6547 24.8068H39.6925L39.1842 26.16H35.7081C35.391 26.16 35.0572 26.134 34.722 26.0732C34.5166 26.0359 34.3102 25.9859 34.1073 25.9197C33.9431 25.8667 33.7809 25.8039 33.6221 25.7304C33.4638 25.6563 33.3079 25.5714 33.1579 25.4743V25.8584V26.16H27.3492L26.2964 24.7887V26.16H5.2756L4.75801 24.8068H3.79585L3.28757 26.16H0.555511V25.3208V20.765L2.28033 16.7325H6.13776L6.9911 18.659V16.7325H11.7195L12.2827 18.3765L12.8361 16.7325H33.1579V17.1455V17.4697C33.3349 17.3515 33.5216 17.248 33.7167 17.1583C33.8828 17.0822 34.0554 17.0165 34.2328 16.9611C34.4588 16.8905 34.6931 16.8365 34.9337 16.7988C35.2165 16.7546 35.5087 16.7325 35.8076 16.7325H42.0344L42.8785 18.6389V16.7325H46.6452L47.6069 18.2402V16.7325H51.9275V26.16ZM54.4865 29.4038V38.2496C54.2743 38.3805 54.043 38.4924 53.7959 38.5821C53.3568 38.7415 52.8671 38.8303 52.3446 38.8303H34.1921L33.1393 37.4595V38.8303H28.9554V36.4384C28.355 36.6615 27.6771 36.7964 26.9311 36.7964H26.9944V38.8303H20.995L20.1328 37.6042L19.2976 38.8303H9.71335V29.4038H19.3344L20.1779 30.6118L21.0313 29.4038H54.0145H54.4865Z" fill="#323642"/>
</g>
<path fill-rule="evenodd" clip-rule="evenodd" d="M16.2758 30.9384V32.2282H12.7183V33.4632H16.1944V34.7349H12.7183V36.015H16.2758V37.2961H11.193V30.9384H16.2758ZM21.5673 37.2961H23.4735L20.9228 34.09L23.4554 30.9384H21.6041L20.0425 32.9546L18.4907 30.9384H16.5845L19.1259 34.117L16.5934 37.2961H18.4451L20.0062 35.2524L21.5673 37.2961ZM23.8093 37.2961V30.9384H27.3035C28.6563 30.9384 29.4998 31.8015 29.4998 33.0635C29.4998 34.2896 28.6381 35.1974 27.2491 35.1974H25.3341V37.2961H23.8093ZM32.5681 35.0071H31.851V37.2961H30.3262V30.9384H33.7754C35.1277 30.9384 35.9717 31.7648 35.9717 32.9546C35.9717 33.9718 35.3276 34.7526 34.2474 34.9527L36.3618 37.2961H34.465L32.5681 35.0071ZM42.1529 30.9384V32.2282H38.5949V33.4632H42.071V34.7349H38.5949V36.015H42.1529V37.2961H37.0701V30.9384H42.1529ZM46.3368 36.0243H43.0788V37.2961H46.2912C47.6621 37.2961 48.4792 36.4603 48.4792 35.2705C48.4792 34.1351 47.744 33.4725 46.5093 33.4725H45.0389C44.6757 33.4725 44.4218 33.2361 44.4218 32.8639C44.4218 32.4823 44.6757 32.2282 45.0389 32.2282H47.7979L48.3611 30.9384H45.084C43.7135 30.9384 42.8965 31.7741 42.8965 32.9183C42.8965 34.09 43.6684 34.7619 44.8757 34.7619H46.3368C46.6995 34.7619 46.9627 34.9978 46.9627 35.3799C46.9627 35.7698 46.6995 36.0243 46.3368 36.0243ZM52.3817 36.0243H49.1232V37.2961H52.3356C53.7071 37.2961 54.5237 36.4603 54.5237 35.2705C54.5237 34.1351 53.7884 33.4725 52.5542 33.4725H51.0838C50.7201 33.4725 50.4667 33.2361 50.4667 32.8639C50.4667 32.4823 50.7201 32.2282 51.0838 32.2282H53.8423L54.406 30.9384H51.1289C49.758 30.9384 48.9414 31.7741 48.9414 32.9183C48.9414 34.09 49.7134 34.7619 50.9206 34.7619H52.3817C52.7444 34.7619 53.0076 34.9978 53.0076 35.3799C53.0076 35.7698 52.7444 36.0243 52.3817 36.0243ZM33.6391 32.2371C34.1836 32.2371 34.4743 32.5912 34.4743 33.0277C34.4743 33.4632 34.1836 33.808 33.6391 33.808H31.851V32.2371H33.6391ZM27.9662 33.0723C27.9662 33.5 27.6942 33.8536 27.1584 33.8536H25.3341V32.292H27.1584C27.6942 32.292 27.9662 32.6368 27.9662 33.0723Z" fill="#889099"/>
<path fill-rule="evenodd" clip-rule="evenodd" d="M8.02554 24.625H6.31004L5.76549 23.2626H2.74326L2.20753 24.625H0.582703L3.30594 18.2673H5.31161L8.02554 24.625ZM9.82241 18.5675L9.85917 20.2841V24.625H8.37943V18.2673H11.0571L12.2731 22.7721L13.4804 18.2673H16.1668V24.625H14.6876V20.2747L14.7239 18.6038L12.9633 24.625H11.5835L9.82241 18.5675ZM22.5024 19.5572V18.2673H17.4196V24.625H22.5024V23.3263H18.9445V22.0639H22.4206V20.7927H18.9445V19.5572H22.5024ZM25.8604 22.3366H25.1433V24.625H23.6185V18.2673H27.0676C28.42 18.2673 29.2645 19.0942 29.2645 20.2841C29.2645 21.3008 28.6199 22.0821 27.5397 22.2817L29.6546 24.625H27.7578L25.8604 22.3366ZM31.6603 24.625H30.1354V21.7907V18.2673H31.6603V21.827V24.625ZM35.554 24.625H35.6358L36.2618 23.2719H35.7991C34.7551 23.2719 34.138 22.6181 34.138 21.492V21.4013C34.138 20.3929 34.6913 19.6391 35.7809 19.6391H37.4327V18.2673H35.654C33.6934 18.2673 32.6224 19.5847 32.6224 21.392V21.5009C32.6224 23.3901 33.7208 24.6162 35.554 24.625ZM43.9217 24.625H42.2067L41.6622 23.2626H38.6399L38.1042 24.625H36.4799L39.2021 18.2673H41.2088L43.9217 24.625ZM45.7647 20.8196L45.7465 20.2929L46.0641 20.8196L48.4962 24.625H50.2759V18.2673H48.7874V21.9457L48.8055 22.418L48.5242 21.9457L46.1455 18.2673H44.2766V24.625H45.7647V20.8196ZM39.6839 20.6382L40.1466 19.4483L40.6088 20.6382L41.1725 22.0458H39.1301L39.6839 20.6382ZM26.9314 19.5665C27.4759 19.5665 27.7666 19.9206 27.7666 20.3567C27.7666 20.7927 27.4759 21.1374 26.9314 21.1374H25.1433V19.5665H26.9314ZM3.78678 20.6382L4.24997 19.4483L4.71267 20.6382L5.27536 22.0458H3.2334L3.78678 20.6382Z" fill="#889099"/>
</svg>
